<?xml version="1.0" encoding="UTF-8" standalone="no"?><svg xmlns="http://www.w3.org/2000/svg" xmlns:xlink="http://www.w3.org/1999/xlink" data-name="Layer 1" fill="#000000" height="388.5" preserveAspectRatio="xMidYMid meet" version="1" viewBox="-0.0 -0.0 388.5 388.5" width="388.5" zoomAndPan="magnify"><g id="change1_1"><path d="M41.9,0H346.63a41.9,41.9,0,0,1,41.9,41.9V346.63a41.89,41.89,0,0,1-41.89,41.89H41.89A41.89,41.89,0,0,1,0,346.63V41.9A41.9,41.9,0,0,1,41.9,0Z" fill="#ffffff" transform="rotate(90 194.26 194.26)"/></g><g id="change2_1"><rect fill="#829cff" height="349.31" rx="25.9" width="349.31" x="19.61" y="19.61"/></g><g id="change3_1"><path d="M127.9,246.36,131,259.22a3.57,3.57,0,0,0,1.87,2.35l11.8,6a3.6,3.6,0,0,1-.77,6.7l-12.86,3.14a3.56,3.56,0,0,0-2.35,1.86l-6,11.81a3.6,3.6,0,0,1-6.7-.78l-3.14-12.86a3.6,3.6,0,0,0-1.86-2.35l-11.81-6a3.59,3.59,0,0,1,.78-6.69l12.86-3.14a3.62,3.62,0,0,0,2.35-1.87l6-11.8A3.59,3.59,0,0,1,127.9,246.36ZM68,296l2.81,8.83a2.56,2.56,0,0,1-.26,2.09l-4.88,7.87a2.51,2.51,0,0,0,2.9,3.72l8.82-2.8a2.52,2.52,0,0,1,2.09.26l7.87,4.88a2.51,2.51,0,0,0,3.72-2.9l-2.8-8.83a2.5,2.5,0,0,1,.26-2.08l4.88-7.88a2.52,2.52,0,0,0-2.9-3.72l-8.83,2.8a2.46,2.46,0,0,1-2.08-.26l-7.87-4.87A2.52,2.52,0,0,0,68,296Zm206.76-50.39,6,11.8a3.57,3.57,0,0,0,2.35,1.87L296,262.4a3.59,3.59,0,0,1,.77,6.69l-11.8,6a3.62,3.62,0,0,0-1.87,2.35L280,290.29a3.6,3.6,0,0,1-6.7.78l-6-11.81a3.6,3.6,0,0,0-2.36-1.86l-12.86-3.14a3.6,3.6,0,0,1-.77-6.7l11.81-6a3.59,3.59,0,0,0,1.86-2.35l3.14-12.86A3.6,3.6,0,0,1,274.79,245.59Zm49.45,47.5L316.37,298a2.49,2.49,0,0,1-2.09.26l-8.82-2.8a2.52,2.52,0,0,0-2.9,3.72l4.88,7.88a2.49,2.49,0,0,1,.25,2.08l-2.8,8.83a2.52,2.52,0,0,0,3.72,2.9l7.88-4.88a2.5,2.5,0,0,1,2.08-.26l8.83,2.8a2.52,2.52,0,0,0,2.9-3.72l-4.88-7.87a2.52,2.52,0,0,1-.26-2.09L328,296A2.51,2.51,0,0,0,324.24,293.09Z" fill="#ff7b58"/></g><g id="change4_1"><path d="M124.4,243.62a3.53,3.53,0,0,1,3.5,2.74L131,259.22a3.57,3.57,0,0,0,1.87,2.35l11.8,6a3.6,3.6,0,0,1-.77,6.7l-12.86,3.14a3.56,3.56,0,0,0-2.35,1.86l-6,11.81a3.59,3.59,0,0,1-6.7-.78l-3.14-12.86a3.6,3.6,0,0,0-1.86-2.35l-11.81-6a3.59,3.59,0,0,1,.78-6.69l12.86-3.14a3.62,3.62,0,0,0,2.35-1.87l6-11.8a3.5,3.5,0,0,1,3.19-2m0-5h0a8.53,8.53,0,0,0-7.65,4.7l-5.7,11.23-12.23,3a8.59,8.59,0,0,0-1.85,16l11.23,5.7,3,12.23a8.59,8.59,0,0,0,16,1.85l5.7-11.23,12.23-3a8.59,8.59,0,0,0,1.85-16l-11.23-5.7-3-12.23a8.57,8.57,0,0,0-8.36-6.55Zm-54,54.08a2.52,2.52,0,0,1,1.33.39L79.63,298a2.5,2.5,0,0,0,1.32.38,2.46,2.46,0,0,0,.76-.12l8.83-2.8a2.74,2.74,0,0,1,.78-.12,2.52,2.52,0,0,1,2.12,3.84L88.56,307a2.5,2.5,0,0,0-.26,2.08l2.8,8.83a2.51,2.51,0,0,1-2.4,3.28,2.56,2.56,0,0,1-1.32-.38L79.51,316a2.5,2.5,0,0,0-2.09-.26l-8.82,2.8a2.47,2.47,0,0,1-.79.13,2.52,2.52,0,0,1-2.11-3.85l4.88-7.87a2.56,2.56,0,0,0,.26-2.09L68,296a2.52,2.52,0,0,1,2.4-3.28m0-5a7.58,7.58,0,0,0-6.08,3.1,7.42,7.42,0,0,0-1.08,6.7l2.45,7.74-4.27,6.9a7.4,7.4,0,0,0-.19,7.6,7.52,7.52,0,0,0,6.55,3.88,7.83,7.83,0,0,0,2.3-.36l7.74-2.46,6.9,4.28a7.51,7.51,0,0,0,10-2,7.43,7.43,0,0,0,1.08-6.69l-2.46-7.74,4.28-6.9a7.4,7.4,0,0,0,.18-7.61A7.47,7.47,0,0,0,89,290.66l-7.74,2.45-6.9-4.27a7.46,7.46,0,0,0-4-1.14ZM271.6,243.62a3.52,3.52,0,0,1,3.19,2l6,11.8a3.57,3.57,0,0,0,2.35,1.87L296,262.4a3.59,3.59,0,0,1,.77,6.69l-11.8,6a3.62,3.62,0,0,0-1.87,2.35L280,290.29a3.59,3.59,0,0,1-6.7.78l-6-11.81a3.6,3.6,0,0,0-2.36-1.86l-12.86-3.14a3.6,3.6,0,0,1-.77-6.7l11.81-6a3.59,3.59,0,0,0,1.86-2.35l3.14-12.86a3.55,3.55,0,0,1,3.51-2.74m0-5h0a8.59,8.59,0,0,0-8.37,6.55l-3,12.23L249,263.1a8.59,8.59,0,0,0,1.85,16l12.23,3,5.7,11.23a8.59,8.59,0,0,0,16-1.85l3-12.23,11.22-5.7a8.59,8.59,0,0,0-1.84-16l-12.24-3-5.69-11.23a8.53,8.53,0,0,0-7.65-4.7Zm54,54.08A2.52,2.52,0,0,1,328,296l-2.8,8.83a2.52,2.52,0,0,0,.26,2.09l4.88,7.87a2.52,2.52,0,0,1-2.12,3.85,2.45,2.45,0,0,1-.78-.13l-8.83-2.8a2.46,2.46,0,0,0-.76-.12,2.5,2.5,0,0,0-1.32.38l-7.88,4.88a2.51,2.51,0,0,1-3.72-2.9l2.8-8.83a2.49,2.49,0,0,0-.25-2.08l-4.88-7.88a2.52,2.52,0,0,1,2.11-3.84,2.81,2.81,0,0,1,.79.12l8.82,2.8a2.5,2.5,0,0,0,2.09-.26l7.87-4.87a2.48,2.48,0,0,1,1.32-.39m0-5a7.43,7.43,0,0,0-3.95,1.14l-6.9,4.27L307,290.66a7.52,7.52,0,0,0-2.3-.36h0a7.51,7.51,0,0,0-6.55,3.87,7.42,7.42,0,0,0,.19,7.61l4.27,6.9-2.45,7.74a7.4,7.4,0,0,0,1.08,6.69,7.51,7.51,0,0,0,10,2l6.9-4.28,7.74,2.46a7.82,7.82,0,0,0,2.29.36,7.52,7.52,0,0,0,6.55-3.88,7.43,7.43,0,0,0-.18-7.6l-4.28-6.9,2.46-7.74a7.42,7.42,0,0,0-1.09-6.7,7.56,7.56,0,0,0-6.08-3.1Z" fill="inherit"/></g><g id="change5_1"><path d="M238.76,318.86H224.67a1.46,1.46,0,0,1-1.06-.44,1.5,1.5,0,0,1-.44-1.06V299.73a7.9,7.9,0,0,0-7.89-7.9h-5.81a1.5,1.5,0,0,1-1.5-1.5V236a1.51,1.51,0,0,1,1.22-1.48c.85-.16,1.69-.34,2.53-.52l.35-.08c1.79-.41,3.6-.9,5.35-1.43a80,80,0,0,0,55.25-63,1.49,1.49,0,0,1,1.48-1.25h24.63a28.49,28.49,0,0,0,28.45-28.45V102.42A28.49,28.49,0,0,0,298.78,74H280.65a1.5,1.5,0,0,1-1.09-.47,1.53,1.53,0,0,1-.41-1.13l.74-11.67a3.23,3.23,0,0,0-3.23-3.43H111.86a3.21,3.21,0,0,0-2.36,1,3.27,3.27,0,0,0-.87,2.42l.74,11.66A1.53,1.53,0,0,1,109,73.5a1.5,1.5,0,0,1-1.09.47H89.74a28.49,28.49,0,0,0-28.45,28.45v37.39a28.49,28.49,0,0,0,28.45,28.45h24.64a1.5,1.5,0,0,1,1.48,1.25c.16,1,.34,2,.54,2.94.13.63.27,1.26.41,1.89l.13.54h0c.17.7.34,1.38.52,2.05a79.82,79.82,0,0,0,61.88,57.57,1.5,1.5,0,0,1,1.22,1.47v54.35a1.5,1.5,0,0,1-1.5,1.5h-5.81a7.9,7.9,0,0,0-7.9,7.9v17.63a1.5,1.5,0,0,1-1.5,1.5H149.76a3.24,3.24,0,0,0-3.2,2.82l-3.29,25.57h102L242,321.68A3.24,3.24,0,0,0,238.76,318.86ZM277.88,92.65a1.51,1.51,0,0,1,1.5-1.41h19.4A11.18,11.18,0,0,1,310,102.42v37.39A11.19,11.19,0,0,1,298.78,151h-23a1.51,1.51,0,0,1-1.49-1.6ZM113.8,150.51a1.51,1.51,0,0,1-1.09.48h-23a11.19,11.19,0,0,1-11.17-11.18V102.42A11.18,11.18,0,0,1,89.74,91.24h19.4a1.5,1.5,0,0,1,1.5,1.41l3.57,56.74A1.54,1.54,0,0,1,113.8,150.51Z" fill="#f6cd46"/></g><g id="change3_2"><path d="M200.32,102.56l8.43,17.09a6.76,6.76,0,0,0,5.09,3.7l18.86,2.74a6.76,6.76,0,0,1,3.75,11.53l-13.65,13.3a6.75,6.75,0,0,0-1.94,6l3.22,18.78a6.76,6.76,0,0,1-9.81,7.13l-16.86-8.87a6.73,6.73,0,0,0-6.29,0l-16.87,8.87a6.77,6.77,0,0,1-9.81-7.13l3.22-18.78a6.75,6.75,0,0,0-1.94-6l-13.65-13.3a6.76,6.76,0,0,1,3.75-11.53l18.86-2.74a6.76,6.76,0,0,0,5.09-3.7l8.43-17.09A6.76,6.76,0,0,1,200.32,102.56Z" fill="#ff7b58"/></g><g id="change4_2"><path d="M276.66,57.27a3.23,3.23,0,0,1,3.23,3.43l-.74,11.67a1.53,1.53,0,0,0,.41,1.13,1.5,1.5,0,0,0,1.09.47h18.13a28.49,28.49,0,0,1,28.45,28.45v37.39a28.49,28.49,0,0,1-28.45,28.45H274.15a1.49,1.49,0,0,0-1.48,1.25,80,80,0,0,1-55.25,63c-1.75.53-3.56,1-5.35,1.43l-.35.08c-.84.18-1.68.36-2.53.52A1.51,1.51,0,0,0,208,236v54.35a1.5,1.5,0,0,0,1.5,1.5h5.81a7.9,7.9,0,0,1,7.89,7.9v17.63a1.5,1.5,0,0,0,.44,1.06,1.46,1.46,0,0,0,1.06.44h14.09a3.24,3.24,0,0,1,3.2,2.82l3.29,25.57h-102l3.29-25.57a3.24,3.24,0,0,1,3.2-2.82h14.09a1.5,1.5,0,0,0,1.5-1.5V299.73a7.9,7.9,0,0,1,7.9-7.9h5.81a1.5,1.5,0,0,0,1.5-1.5V236a1.5,1.5,0,0,0-1.22-1.47,79.82,79.82,0,0,1-61.88-57.57c-.18-.67-.35-1.35-.52-2.05h0l-.13-.54c-.14-.63-.28-1.26-.41-1.89-.2-1-.38-1.95-.54-2.94a1.5,1.5,0,0,0-1.48-1.25H89.74a28.49,28.49,0,0,1-28.45-28.45V102.42A28.49,28.49,0,0,1,89.74,74h18.13A1.5,1.5,0,0,0,109,73.5a1.53,1.53,0,0,0,.41-1.13l-.74-11.66a3.27,3.27,0,0,1,.87-2.42,3.21,3.21,0,0,1,2.36-1h164.8M275.81,151h23A11.19,11.19,0,0,0,310,139.81V102.42a11.18,11.18,0,0,0-11.17-11.18h-19.4a1.51,1.51,0,0,0-1.5,1.41l-3.56,56.74a1.51,1.51,0,0,0,1.49,1.6M89.74,151h23a1.51,1.51,0,0,0,1.09-.48,1.54,1.54,0,0,0,.41-1.12l-3.57-56.74a1.5,1.5,0,0,0-1.5-1.41H89.74a11.18,11.18,0,0,0-11.17,11.18v37.39A11.19,11.19,0,0,0,89.74,151M276.66,51.77H111.86a8.74,8.74,0,0,0-8.72,9.28l.47,7.42H89.74a34,34,0,0,0-33.95,34v37.39a34,34,0,0,0,33.95,33.95h21.32c.12.6.26,1.21.39,1.81l.12.52,0,.07h0c.18.74.36,1.46.55,2.18a85.39,85.39,0,0,0,62.92,60.87v47.11h-1.82a13.41,13.41,0,0,0-13.39,13.4v13.63H149.76a8.75,8.75,0,0,0-8.65,7.62l-3.3,25.57a5.51,5.51,0,0,0,5.46,6.2h102a5.51,5.51,0,0,0,5.46-6.2L247.42,321a8.76,8.76,0,0,0-8.66-7.62H228.67V299.73a13.41,13.41,0,0,0-13.39-13.4h-1.81V239.22c1.86-.43,3.73-.93,5.56-1.49a85.64,85.64,0,0,0,58.43-64h21.32a34,34,0,0,0,34-33.95V102.42a34,34,0,0,0-34-33.95H284.91l.47-7.42a8.74,8.74,0,0,0-8.72-9.28Zm6.47,45h15.65a5.68,5.68,0,0,1,5.67,5.68v37.39a5.68,5.68,0,0,1-5.67,5.68H280.07l3.06-48.75ZM89.74,145.49a5.68,5.68,0,0,1-5.67-5.68V102.42a5.68,5.68,0,0,1,5.67-5.68h15.65l3.06,48.75Zm104.52-46.7a6.68,6.68,0,0,1,6.06,3.77l8.43,17.09a6.76,6.76,0,0,0,5.09,3.7l18.86,2.74a6.76,6.76,0,0,1,3.75,11.53l-13.65,13.3a6.75,6.75,0,0,0-1.94,6l3.22,18.78a6.75,6.75,0,0,1-9.81,7.13l-16.86-8.87a6.77,6.77,0,0,0-3.15-.78,6.7,6.7,0,0,0-3.14.78l-16.87,8.87a6.75,6.75,0,0,1-9.81-7.13l3.22-18.78a6.75,6.75,0,0,0-1.94-6l-13.65-13.3a6.76,6.76,0,0,1,3.75-11.53l18.86-2.74a6.76,6.76,0,0,0,5.09-3.7l8.43-17.09a6.68,6.68,0,0,1,6.06-3.77m0-5.5a12.18,12.18,0,0,0-11,6.84l-8.43,17.09a1.28,1.28,0,0,1-1,.69L155,120.65a12.25,12.25,0,0,0-6.79,20.91l13.64,13.3a1.24,1.24,0,0,1,.36,1.11L159,174.75a12.25,12.25,0,0,0,17.79,12.93l16.87-8.87a1.19,1.19,0,0,1,.58-.15,1.23,1.23,0,0,1,.59.15l16.86,8.87a12.26,12.26,0,0,0,17.79-12.93L226.28,156a1.24,1.24,0,0,1,.36-1.11l13.65-13.31a12.25,12.25,0,0,0-6.8-20.9l-18.86-2.74a1.25,1.25,0,0,1-.94-.69l-8.44-17.09a12.18,12.18,0,0,0-11-6.84Z" fill="inherit"/></g></svg>