<?xml version="1.0" encoding="UTF-8"?><svg xmlns="http://www.w3.org/2000/svg" xmlns:xlink="http://www.w3.org/1999/xlink" height="355.2" preserveAspectRatio="xMidYMid meet" version="1.0" viewBox="-3.7 -3.7 297.8 355.2" width="297.8" zoomAndPan="magnify"><g id="change1_1"><path d="M286.453,347.888c-2.989,2.365-6.735,3.667-10.547,3.667c-2.85,0-5.678-0.725-8.177-2.096l-65.698-36.107 c-1.992-1.096-3.714-2.55-5.125-4.327L6.211,68.141c-9.863-12.463-7.75-30.625,4.71-40.488L38.005,6.212 c12.459-9.863,30.62-7.752,40.485,4.706l190.682,240.868c1.421,1.799,2.443,3.814,3.051,6.004l20.063,72.215 C294.124,336.609,291.835,343.631,286.453,347.888z" fill="#FFF"/></g><g id="change2_1"><path d="M102.681,72.087l-42.486,33.634l150.35,189.922l42.487-33.635L102.681,72.087z M207.486,256.447 l-1.966,1.556c-1.876,1.485-4.117,2.206-6.342,2.206c-3.023,0-6.019-1.329-8.036-3.877L94.004,133.627 c-1.697-2.143-2.457-4.819-2.142-7.535c0.316-2.716,1.671-5.146,3.814-6.843l1.966-1.556c2.144-1.696,4.819-2.456,7.535-2.142 c2.716,0.315,5.146,1.67,6.843,3.814l97.139,122.705c1.697,2.143,2.457,4.819,2.142,7.535 C210.984,252.321,209.63,254.751,207.486,256.447z" fill="#F0FD71"/></g><g id="change3_1"><path d="M83.791,48.226L41.306,81.86L21.108,56.348c-3.361-4.247-2.642-10.436,1.604-13.797c0,0,0,0,0,0 l27.085-21.441c1.801-1.426,3.95-2.117,6.086-2.117c2.9,0,5.775,1.275,7.711,3.721L83.791,48.226z" fill="#FF4F63"/></g><g id="change4_1"><path d="M277.833,334.02l-20.063-72.218c-0.071-0.257-0.193-0.497-0.358-0.706L87.774,46.812L66.732,20.23 c-4.731-5.975-13.44-6.988-19.416-2.257L20.231,39.415v0c-5.976,4.73-6.988,13.44-2.259,19.416L38.2,84.382l170.451,215.314 c0.166,0.209,0.371,0.383,0.604,0.511l65.688,36.102c0.302,0.166,0.633,0.247,0.963,0.247c0.441,0,0.88-0.146,1.241-0.432 C277.778,335.624,278.049,334.796,277.833,334.02z M21.108,56.348c-3.361-4.247-2.642-10.436,1.604-13.797c0,0,0,0,0,0 l27.085-21.441c1.801-1.426,3.95-2.117,6.086-2.117c2.9,0,5.775,1.275,7.711,3.721l20.196,25.513L41.306,81.86L21.108,56.348z M43.788,84.996l42.485-33.634l5.721,7.227L49.509,92.222L43.788,84.996z M51.992,95.358l42.486-33.633l5.721,7.226l-42.485,33.634 L51.992,95.358z M60.195,105.721l42.486-33.634l150.351,189.921l-42.487,33.635L60.195,105.721z M256.34,321.52l-42.52-23.369 l40.901-32.379l12.988,46.748L256.34,321.52z M209.159,242.07l-97.139-122.705c-1.697-2.144-4.127-3.499-6.843-3.814 c-2.716-0.314-5.392,0.446-7.535,2.142l-1.966,1.556c-2.144,1.697-3.498,4.127-3.814,6.843c-0.315,2.716,0.444,5.392,2.142,7.535 l97.139,122.706c2.018,2.548,5.013,3.877,8.036,3.877c2.225,0,4.466-0.721,6.342-2.206l1.966-1.556 c2.144-1.697,3.498-4.127,3.814-6.843C211.616,246.889,210.857,244.213,209.159,242.07z M207.327,249.142 c-0.192,1.655-1.018,3.135-2.323,4.169l-1.966,1.556c-2.695,2.133-6.625,1.678-8.759-1.018L97.141,131.144 c-1.034-1.306-1.497-2.936-1.305-4.59c0.192-1.655,1.018-3.135,2.323-4.168l1.966-1.556c1.144-0.905,2.508-1.344,3.864-1.344 c1.841,0,3.666,0.81,4.895,2.362l97.139,122.705C207.057,245.858,207.52,247.488,207.327,249.142z" fill="inherit"/></g></svg>