<?xml version="1.0" encoding="UTF-8"?><svg xmlns="http://www.w3.org/2000/svg" xmlns:xlink="http://www.w3.org/1999/xlink" height="323.4" preserveAspectRatio="xMidYMid meet" version="1.0" viewBox="-1.8 -0.9 300.1 323.4" width="300.1" zoomAndPan="magnify"><g id="change1_1"><path d="M287.597,100.983L287.597,100.983c-6.126,26.345-17.868,49.409-34.899,68.551 c-10.449,11.739-22.229,24-35.113,36.554c3.96,9.222,5.925,19.082,5.74,29.051c-0.521,28.229-17.645,55.959-50.897,82.421 c-2.994,2.384-6.753,3.698-10.584,3.698c-3.982,0-7.857-1.407-10.911-3.963c-6.127-5.129-7.846-13.931-4.119-20.983 c0.188-0.372,3.959-7.95,4.738-18.129c0.34-4.451,0.104-8.676-0.717-12.718c-6.647,5.423-11.854,9.541-15.069,12.052 c-3.02,2.369-4.959,3.84-5.543,4.282l-0.087,0.066c-2.36,1.771-5.176,2.901-8.097,3.271c-6.819,8.564-15.379,15.973-27.054,17.933 c-1.932,0.321-3.87,0.308-5.736-0.017c-10.079,10.867-22.47,19.392-38.704,19.393c-4.892,0-9.848-0.765-15.152-2.338 c-5.713-1.697-10.172-6.335-11.641-12.106c-1.468-5.785,0.237-11.991,4.448-16.207c0.293-0.293,0.559-0.566,0.799-0.818 c-1.153-1.106-2.158-2.371-2.976-3.765c-1.074-1.832-1.787-3.816-2.124-5.906c-4.048-25.313,4.136-48.64,21.183-62.612 c0.233-1.083,0.576-2.153,1.03-3.198c0.04-0.092,1.053-2.419,2.937-6.511c1.303-2.845,4.097-8.876,8.162-17.282 c-16.521,0.539-28.218,10.252-29.011,10.927c-3.11,2.726-7.082,4.221-11.212,4.221c-3.627,0-7.228-1.192-10.14-3.355 c-6.458-4.805-8.666-13.575-5.253-20.857c18.041-38.481,41.05-61.564,68.389-68.61c9.652-2.487,19.694-2.861,29.579-1.149 c9.228-15.442,18.428-29.745,27.425-42.628c14.678-21.005,34.394-37.771,58.602-49.834c42.812-21.329,85.548-20.42,85.973-20.409 c7.478,0.168,14.084,5.39,15.993,12.697C287.997,14.394,298.324,54.833,287.597,100.983z" fill="#FFF"/></g><g id="change2_1"><path d="M112.88,265.251c-5.395,8.314-11.367,15.969-18.563,18.447c-0.521-4.869-4.903-7.971-5.125-8.125 c-0.904-0.627-2.146-0.405-2.777,0.494c-15.778,22.485-27.239,29.858-42.397,26.646c5.801-6.513,5.874-10.132,5.266-14.982 c-0.361-2.88-0.734-5.859,1.294-10.979c0.338-0.854,0.052-1.829-0.695-2.363c-2.199-1.576-4.845,0.111-6.971,1.465 c-0.167,0.106-0.356,0.228-0.551,0.349c-2.711-21.613,6.521-40.636,23.425-48.149L112.88,265.251z" fill="#F0FD71"/></g><g id="change3_1"><path d="M81.326,176.924c-17.016-6.536-32.091-4.523-42.545-1.145c-6.874,2.221-12.471,5.204-16.437,7.708 c14.795-28.718,32.374-45.877,52.322-51.044c11.823-3.061,22.409-1.216,30.018,1.375C95.543,149.732,87.617,164.626,81.326,176.924z M159.507,238.668c10.306,15.042,11.84,30.177,10.976,41.131c-0.567,7.201-2.172,13.337-3.69,17.776 c24.509-21.046,37.129-42.122,37.534-62.724c0.24-12.216-4.012-22.09-8.297-28.892C182.666,218.536,170.013,229.698,159.507,238.668 z M269.525,19.006c-7.33,0.1-39.689,1.463-72.604,17.034l72.854,57.541C277.295,57.955,271.126,26.161,269.525,19.006z M66.31,216.926c-0.963,2.093-1.687,3.7-2.154,4.745l55.795,44.068c0.909-0.696,2.303-1.772,4.114-3.193 c2.87-2.242,7.368-5.797,13.06-10.42l-63.698-50.309C69.919,209.105,67.495,214.338,66.31,216.926z" fill="#FF4F63"/></g><g id="change4_1"><path d="M208.283,144.168c-10.088,12.772-28.685,14.958-41.46,4.869c-12.771-10.088-14.956-28.687-4.868-41.459 c4.887-6.188,11.891-10.101,19.721-11.021c1.172-0.137,2.339-0.206,3.501-0.206c6.604,0,12.976,2.202,18.237,6.358 C216.187,112.797,218.371,131.395,208.283,144.168z" fill="#A7E8CE"/></g><g id="change5_1"><path d="M273.041,16.495c-0.226-0.864-0.997-1.473-1.89-1.493c-0.393-0.011-39.748-0.652-78.872,18.84 c-21.939,10.933-39.77,26.072-52.994,44.998c-11.805,16.903-22.809,34.633-32.533,51.391c-8.181-2.919-19.796-5.088-33.025-1.678 c-22.801,5.876-42.5,26.214-58.55,60.449c-0.403,0.861-0.145,1.887,0.618,2.454c0.355,0.264,0.775,0.395,1.193,0.395 c0.479,0,0.957-0.172,1.335-0.51c0.298-0.267,27.039-23.662,61.179-10.829c-3.033,5.983-5.925,11.807-8.594,17.324 c-4.112,8.496-6.924,14.564-8.233,17.421c-1.821,3.957-2.799,6.203-2.809,6.225c-0.362,0.833-0.118,1.804,0.594,2.367l1.825,1.442 c-17.919,9.056-27.334,30.136-23.577,53.631c0.04,0.246,0.124,0.481,0.25,0.696c0.359,0.611,0.932,1.039,1.615,1.203 c1.449,0.348,2.856-0.551,4.489-1.593c0.182-0.116,0.399-0.254,0.633-0.399c-1.045,4.097-0.684,6.982-0.381,9.401 c0.513,4.095,0.852,6.8-6.503,14.167c-0.498,0.499-0.697,1.223-0.523,1.906c0.174,0.683,0.694,1.224,1.37,1.425 c3.814,1.131,7.415,1.719,10.886,1.719c13.041,0,24.227-8.297,37.833-27.232c1.127,1.257,2.403,3.281,1.847,5.63 c-0.154,0.652,0.028,1.338,0.486,1.828s1.128,0.716,1.792,0.605c9.714-1.631,17.075-10.637,23.531-20.536l2.657,2.099 c0.363,0.287,0.801,0.431,1.24,0.431c0.422,0,0.845-0.133,1.201-0.401c0.019-0.015,1.978-1.486,5.402-4.172 c3.2-2.5,8.409-6.618,15.053-12.042c4.891-4.004,9.887-8.171,14.881-12.403c7.734,11.352,11.111,24.108,10.043,38.076 c-1.064,13.908-6.372,23.88-6.425,23.979c-0.451,0.836-0.253,1.875,0.476,2.485c0.371,0.311,0.828,0.466,1.284,0.466 c0.439,0,0.88-0.145,1.244-0.435c29.585-23.544,44.806-47.419,45.24-70.961c0.252-13.665-4.553-24.465-9.29-31.747 c14.049-13.342,28.747-28.154,42.454-43.552c15.348-17.25,25.943-38.102,31.495-61.977 C282.883,55.012,273.141,16.876,273.041,16.495z M38.781,175.779c-6.874,2.221-12.471,5.204-16.437,7.708 c14.795-28.718,32.374-45.877,52.322-51.044c11.823-3.061,22.409-1.216,30.018,1.375c-9.139,15.914-17.066,30.809-23.356,43.107 C64.31,170.388,49.235,172.401,38.781,175.779z M94.317,283.698c-0.521-4.869-4.903-7.971-5.125-8.125 c-0.904-0.627-2.146-0.405-2.777,0.494c-15.778,22.485-27.239,29.858-42.397,26.646c5.801-6.513,5.874-10.132,5.266-14.982 c-0.361-2.88-0.734-5.859,1.294-10.979c0.338-0.854,0.052-1.829-0.695-2.363c-2.199-1.576-4.845,0.111-6.971,1.465 c-0.167,0.106-0.356,0.228-0.551,0.349c-2.711-21.613,6.521-40.636,23.425-48.149l47.094,37.196 C107.485,273.565,101.513,281.22,94.317,283.698z M124.066,262.547c-1.811,1.421-3.206,2.497-4.114,3.193l-55.795-44.068 c0.467-1.045,1.19-2.652,2.154-4.745c1.185-2.588,3.609-7.821,7.118-15.109l63.698,50.309 C131.434,256.75,126.935,260.305,124.066,262.547z M204.326,234.851c-0.405,20.602-13.025,41.678-37.534,62.724 c1.519-4.439,3.123-10.575,3.69-17.776c0.864-10.954-0.67-26.089-10.976-41.131c10.507-8.97,23.159-20.132,36.523-32.709 C200.314,212.761,204.567,222.636,204.326,234.851z M238.503,156.904c-28.135,31.607-60.507,60.772-82.708,79.673 c-5.192,4.418-10.396,8.767-15.499,12.957l-30.971-24.461l42.116-53.324l-3.139-2.479l-42.117,53.325l-30.973-24.463 c2.804-5.771,5.824-11.838,9.008-18.084c13.241-25.974,34.111-64.219,58.344-98.917c12.611-18.047,29.564-32.547,50.383-43.132 l75.841,59.9C263.316,120.603,253.138,140.454,238.503,156.904z M269.774,93.58L196.92,36.039 c32.916-15.571,65.275-16.934,72.604-17.034C271.126,26.161,277.295,57.955,269.774,93.58z M164.345,152.176 c6.14,4.85,13.463,7.201,20.739,7.201c9.911,0,19.732-4.366,26.338-12.729c11.455-14.504,8.975-35.622-5.529-47.077 c-7.024-5.549-15.787-8.028-24.684-6.986c-8.892,1.044-16.844,5.489-22.393,12.514C147.362,119.602,149.841,140.721,164.345,152.176 z M161.955,107.578c4.887-6.188,11.891-10.101,19.721-11.021c1.172-0.137,2.339-0.206,3.501-0.206 c6.604,0,12.976,2.202,18.237,6.358c12.772,10.088,14.957,28.686,4.869,41.458c-10.088,12.772-28.685,14.958-41.46,4.869 C154.052,138.949,151.867,120.35,161.955,107.578z M151.655,99.442c-14.574,18.453-11.418,45.322,7.034,59.895 c7.602,6.004,16.805,9.186,26.347,9.186c1.677,0,3.366-0.099,5.058-0.297c11.312-1.328,21.431-6.983,28.49-15.921 c7.061-8.939,10.217-20.092,8.888-31.405c-1.328-11.312-6.982-21.431-15.922-28.491C193.097,77.834,166.228,80.99,151.655,99.442z M209.071,95.547c8.1,6.398,13.224,15.567,14.428,25.819c1.204,10.251-1.656,20.358-8.054,28.458 c-6.397,8.101-15.566,13.225-25.818,14.428c-10.254,1.205-20.359-1.657-28.459-8.054c-16.721-13.207-19.58-37.555-6.374-54.277 c7.617-9.644,18.938-14.676,30.366-14.676C193.547,87.245,201.992,89.957,209.071,95.547z" fill="inherit"/></g></svg>